<?xml version="1.0" encoding="UTF-8" standalone="no"?>
<svg
   width="256"
   height="256"
   viewBox="0 0 256 256"
   fill="none"
   version="1.1"
   id="svg11"
   sodipodi:docname="logo_inverted.svg"
   inkscape:version="1.4 (e7c3feb100, 2024-10-09)"
   xmlns:inkscape="http://www.inkscape.org/namespaces/inkscape"
   xmlns:sodipodi="http://sodipodi.sourceforge.net/DTD/sodipodi-0.dtd"
   xmlns="http://www.w3.org/2000/svg"
   xmlns:svg="http://www.w3.org/2000/svg">
  <defs
     id="defs11" />
  <sodipodi:namedview
     id="namedview11"
     pagecolor="#ffffff"
     bordercolor="#999999"
     borderopacity="1"
     inkscape:showpageshadow="2"
     inkscape:pageopacity="0"
     inkscape:pagecheckerboard="0"
     inkscape:deskcolor="#d1d1d1"
     inkscape:zoom="1.7705279"
     inkscape:cx="234.67577"
     inkscape:cy="110.41905"
     inkscape:window-width="2560"
     inkscape:window-height="1368"
     inkscape:window-x="1920"
     inkscape:window-y="0"
     inkscape:window-maximized="1"
     inkscape:current-layer="svg11">
    <inkscape:page
       x="0"
       y="0"
       width="256"
       height="256"
       id="page1"
       margin="0"
       bleed="0" />
  </sodipodi:namedview>
  <path
     d="m 83.183892,183.94813 c 1.599068,-1.33854 1.559797,-3.80516 0.0028,-5.19248 -5.282187,-4.7048 -9.913582,-10.32207 -13.644058,-16.7838 -16.460523,-28.50988 -9.910631,-63.990972 13.887769,-84.935946 1.566342,-1.378458 1.620757,-3.849699 0.02708,-5.196459 L 43.435106,38.016452 c -1.253203,-0.640012 -2.782457,-0.329567 -3.68697,0.748457 L 25.247049,56.046527 c -0.983953,1.172735 -1.027716,2.869724 -0.105235,4.091484 l 20.198313,26.753853 c -3.03207,6.139088 -5.371766,12.58798 -6.984566,19.217826 l -32.6804165,7.5128 c -1.4919078,0.34394 -2.5492693,1.67093 -2.5492693,3.20198 v 22.34846 c 0,1.53105 1.0573615,2.85933 2.5492693,3.20199 l 32.6546205,7.50766 c 1.590598,6.5336 3.918744,12.97736 7.015111,19.21706 l -20.203062,26.76065 c -0.922481,1.22176 -0.878718,2.91837 0.105235,4.09136 l 13.903811,16.56948 c 1.165292,1.3886 3.235226,1.57084 4.625363,0.40811 z"
     fill="#ffffff"
     id="path2"
     style="fill:#0064ff;fill-opacity:1;stroke-width:1.28336" />
  <path
     d="m 199.43732,139.1678 c -1.95841,-0.71612 -4.07595,0.55184 -4.49818,2.59367 -1.43351,6.92759 -3.98227,13.74609 -7.713,20.20781 -16.4604,28.50988 -50.46306,40.57861 -80.50142,30.44134 -1.97638,-0.66735 -4.14397,0.52104 -4.51358,2.57442 l -9.279989,51.57188 c 0.07187,1.40529 1.106258,2.57443 2.491005,2.81955 l 22.217554,3.91682 c 1.50795,0.26565 2.99922,-0.54415 3.59598,-1.95456 l 13.06975,-30.8687 c 6.8339,-0.44404 13.58823,-1.6427 20.13595,-3.56004 l 22.8464,24.54557 c 1.04337,1.12038 2.72201,1.37192 4.04772,0.60575 l 19.35437,-11.17423 c 1.32572,-0.76488 1.94686,-2.3447 1.49897,-3.80773 l -9.82542,-32.03399 c 4.86138,-4.64449 9.27871,-9.88188 13.13393,-15.68396 l 33.27756,4.11702 c 1.51822,0.18737 2.96585,-0.69943 3.48946,-2.13808 l 7.39858,-20.32588 c 0.61986,-1.70302 -0.25667,-3.58699 -1.95969,-4.20942 z"
     fill="#ffffff"
     id="path3"
     style="fill:#0064ff;fill-opacity:1;stroke-width:1.28336" />
  <path
     d="m 102.5307,60.883131 c 0.35934,2.053892 2.51667,3.253835 4.49561,2.598807 6.71583,-2.221884 13.89624,-3.424393 21.35642,-3.424393 32.92207,0 60.37446,23.412749 66.61416,54.495375 0.41068,2.04568 2.52309,3.32904 4.48663,2.62191 l 49.3029,-17.748887 c 1.1807,-0.766167 1.67607,-2.2446 1.19481,-3.567745 l -7.71557,-21.198951 c -0.52361,-1.43852 -1.97124,-2.324809 -3.49074,-2.136925 l -33.26858,4.115355 c -3.80132,-5.69543 -8.21608,-10.946175 -13.15061,-15.657395 l 9.83312,-32.059013 c 0.44918,-1.463545 -0.17197,-3.043107 -1.49768,-3.808632 l -19.35438,-11.1741 c -1.32571,-0.765525 -3.00435,-0.513858 -4.04772,0.606773 l -22.82972,24.52568 c -6.45274,-1.888851 -13.1968,-3.094441 -20.15006,-3.533222 L 121.23569,4.661373 C 120.63893,3.2516003 119.14766,2.4410292 117.63971,2.7068134 L 96.338476,6.4629559 C 94.55332,6.7777644 93.359794,8.4791168 93.672934,10.264786 Z"
     fill="#ffffff"
     id="path4"
     style="fill:#0064ff;fill-opacity:1;stroke-width:1.28336" />
</svg>
