<?xml version="1.0" encoding="UTF-8" standalone="no"?>
<svg
   width="256"
   height="256"
   viewBox="0 0 256 256"
   fill="none"
   version="1.1"
   id="svg11"
   sodipodi:docname="logo.svg"
   inkscape:version="1.4 (e7c3feb100, 2024-10-09)"
   xmlns:inkscape="http://www.inkscape.org/namespaces/inkscape"
   xmlns:sodipodi="http://sodipodi.sourceforge.net/DTD/sodipodi-0.dtd"
   xmlns="http://www.w3.org/2000/svg"
   xmlns:svg="http://www.w3.org/2000/svg">
  <defs
     id="defs11" />
  <sodipodi:namedview
     id="namedview11"
     pagecolor="#ffffff"
     bordercolor="#999999"
     borderopacity="1"
     inkscape:showpageshadow="2"
     inkscape:pageopacity="0"
     inkscape:pagecheckerboard="0"
     inkscape:deskcolor="#d1d1d1"
     inkscape:zoom="1.7705279"
     inkscape:cx="498.72131"
     inkscape:cy="127.92795"
     inkscape:window-width="2560"
     inkscape:window-height="1368"
     inkscape:window-x="1920"
     inkscape:window-y="0"
     inkscape:window-maximized="1"
     inkscape:current-layer="svg11">
    <inkscape:page
       x="0"
       y="0"
       width="256"
       height="256"
       id="page1"
       margin="0"
       bleed="0" />
  </sodipodi:namedview>
  <path
     d="M 256,127.996 C 256,198.686 198.691,256 127.998,256 57.3068,256 0,198.686 0,127.996 0,57.3054 57.3068,0 127.998,0 198.691,0 256,57.3054 256,127.996 Z"
     fill="#0064ff"
     id="path1" />
  <path
     d="m 92.7799,171.595 c 1.246,-1.043 1.2154,-2.965 0.0022,-4.046 -4.1159,-3.666 -7.7247,-8.043 -10.6315,-13.078 -12.8261,-22.215 -7.7224,-49.862 10.8214,-66.1824 1.2205,-1.0741 1.2629,-2.9997 0.0211,-4.0491 L 61.8075,57.8845 C 60.831,57.3858 59.6394,57.6277 58.9346,58.4677 L 47.6353,71.9336 c -0.7667,0.9138 -0.8008,2.2361 -0.082,3.1881 l 15.7386,20.8467 c -2.3626,4.7836 -4.1857,9.8086 -5.4424,14.9746 l -25.4647,5.854 c -1.1625,0.268 -1.9864,1.302 -1.9864,2.495 v 17.414 c 0,1.193 0.8239,2.228 1.9864,2.495 l 25.4446,5.85 c 1.2394,5.091 3.0535,10.112 5.4662,14.974 l -15.7423,20.852 c -0.7188,0.952 -0.6847,2.274 0.082,3.188 l 10.8339,12.911 c 0.908,1.082 2.5209,1.224 3.6041,0.318 z"
     fill="#ffffff"
     id="path2" />
  <path
     d="m 183.365,136.702 c -1.526,-0.558 -3.176,0.43 -3.505,2.021 -1.117,5.398 -3.103,10.711 -6.01,15.746 -12.826,22.215 -39.321,31.619 -62.727,23.72 -1.54,-0.52 -3.229,0.406 -3.517,2.006 l -7.231,40.185 c 0.056,1.095 0.862,2.006 1.941,2.197 l 17.312,3.052 c 1.175,0.207 2.337,-0.424 2.802,-1.523 l 10.184,-24.053 c 5.325,-0.346 10.588,-1.28 15.69,-2.774 l 17.802,19.126 c 0.813,0.873 2.121,1.069 3.154,0.472 l 15.081,-8.707 c 1.033,-0.596 1.517,-1.827 1.168,-2.967 l -7.656,-24.961 c 3.788,-3.619 7.23,-7.7 10.234,-12.221 l 25.93,3.208 c 1.183,0.146 2.311,-0.545 2.719,-1.666 l 5.765,-15.838 c 0.483,-1.327 -0.2,-2.795 -1.527,-3.28 z"
     fill="#ffffff"
     id="path3" />
  <path
     d="m 107.855,75.7023 c 0.28,1.6004 1.961,2.5354 3.503,2.025 5.233,-1.7313 10.828,-2.6683 16.641,-2.6683 25.653,0 47.044,18.2433 51.906,42.463 0.32,1.594 1.966,2.594 3.496,2.043 l 38.417,-13.83 c 0.92,-0.597 1.306,-1.749 0.931,-2.78 l -6.012,-16.5183 c -0.408,-1.1209 -1.536,-1.8115 -2.72,-1.6651 l -25.923,3.2067 C 185.132,83.5404 181.692,79.449 177.847,75.778 l 7.662,-24.9805 c 0.35,-1.1404 -0.134,-2.3712 -1.167,-2.9677 l -15.081,-8.7069 c -1.033,-0.5965 -2.341,-0.4004 -3.154,0.4728 L 148.318,58.7062 C 143.29,57.2344 138.035,56.295 132.617,55.9531 L 122.43,31.8941 c -0.465,-1.0985 -1.627,-1.7301 -2.802,-1.523 l -16.598,2.9268 c -1.391,0.2453 -2.321,1.571 -2.077,2.9624 z"
     fill="#ffffff"
     id="path4" />
</svg>
